<svg xmlns="http://www.w3.org/2000/svg" xmlns:xlink="http://www.w3.org/1999/xlink" version="1.1" width="256" height="256" viewBox="0 0 256 256" xml:space="preserve">
<desc>Created with Fabric.js 1.7.22</desc>
<defs>
</defs>
<g transform="translate(128 128) scale(1.21 1.21)" style="">
	<g style="stroke: none; stroke-width: 0; stroke-dasharray: none; stroke-linecap: butt; stroke-linejoin: miter; stroke-miterlimit: 10; fill: none; fill-rule: nonzero; opacity: 1;" transform="translate(-104.85 -104.85000000000001) scale(2.33 2.33)" >
	<path d="M 55.913 76.439 c 0 0.029 0.004 0.057 0.004 0.087 C 55.918 83.967 49.885 90 42.443 90 s -13.475 -6.033 -13.475 -13.475 c 0 -0.029 0.004 -0.057 0.004 -0.087 C 37.953 69.714 46.933 69.714 55.913 76.439 z" style="stroke: none; stroke-width: 1; stroke-dasharray: none; stroke-linecap: butt; stroke-linejoin: miter; stroke-miterlimit: 10; fill: rgb(219,156,32); fill-rule: nonzero; opacity: 1;" transform=" matrix(1 0 0 1 0 0) " stroke-linecap="round" />
	<path d="M 72.956 56.082 V 30.513 C 72.956 13.661 59.295 0 42.443 0 h 0 C 25.591 0 11.93 13.661 11.93 30.513 v 25.569 c 0 3.238 -1.418 6.314 -3.88 8.417 l 0 0 c -2.462 2.103 -3.88 5.179 -3.88 8.417 v 0 c 0 1.945 1.577 3.522 3.522 3.522 h 69.503 c 1.945 0 3.522 -1.577 3.522 -3.522 v 0 c 0 -3.238 -1.418 -6.314 -3.88 -8.417 l 0 0 C 74.374 62.396 72.956 59.32 72.956 56.082 z" style="stroke: none; stroke-width: 1; stroke-dasharray: none; stroke-linecap: butt; stroke-linejoin: miter; stroke-miterlimit: 10; fill: rgb(255,185,46); fill-rule: nonzero; opacity: 1;" transform=" matrix(1 0 0 1 0 0) " stroke-linecap="round" />
	<circle cx="67.524" cy="18.304" r="18.304" style="stroke: none; stroke-width: 1; stroke-dasharray: none; stroke-linecap: butt; stroke-linejoin: miter; stroke-miterlimit: 10; fill: rgb(237,38,38); fill-rule: nonzero; opacity: 1;" transform="  matrix(1 0 0 1 0 0) "/>
	<path d="M 68.549 28.504 c -0.553 0 -1 -0.448 -1 -1 V 11.293 l -4.134 4.159 c -0.39 0.391 -1.021 0.394 -1.414 0.004 c -0.392 -0.39 -0.394 -1.023 -0.004 -1.415 l 5.843 -5.878 c 0.286 -0.287 0.719 -0.372 1.09 -0.219 c 0.375 0.154 0.619 0.52 0.619 0.924 v 18.636 C 69.549 28.057 69.102 28.504 68.549 28.504 z" style="stroke: none; stroke-width: 1; stroke-dasharray: none; stroke-linecap: butt; stroke-linejoin: miter; stroke-miterlimit: 10; fill: rgb(255,255,255); fill-rule: nonzero; opacity: 1;" transform=" matrix(1 0 0 1 0 0) " stroke-linecap="round" />
</g>
</g>
</svg>